<?xml version="1.0" encoding="UTF-8" standalone="no"?>
<!-- Created with Inkscape (http://www.inkscape.org/) -->

<svg
   xmlns:dc="http://purl.org/dc/elements/1.1/"
   xmlns:cc="http://creativecommons.org/ns#"
   xmlns:rdf="http://www.w3.org/1999/02/22-rdf-syntax-ns#"
   xmlns:svg="http://www.w3.org/2000/svg"
   xmlns="http://www.w3.org/2000/svg"
   xmlns:sodipodi="http://sodipodi.sourceforge.net/DTD/sodipodi-0.dtd"
   xmlns:inkscape="http://www.inkscape.org/namespaces/inkscape"
   width="64px"
   height="64px"
   id="svg3002"
   version="1.1"
   inkscape:version="0.48.3.1 r9886"
   sodipodi:docname="New document 2">
  <defs
     id="defs3004" />
  <sodipodi:namedview
     id="base"
     pagecolor="#ffffff"
     bordercolor="#666666"
     borderopacity="1.0"
     inkscape:pageopacity="0.0"
     inkscape:pageshadow="2"
     inkscape:zoom="2.75"
     inkscape:cx="-114.72727"
     inkscape:cy="-35.454545"
     inkscape:current-layer="layer1"
     showgrid="true"
     inkscape:document-units="px"
     inkscape:grid-bbox="true"
     inkscape:window-width="1920"
     inkscape:window-height="1080"
     inkscape:window-x="1366"
     inkscape:window-y="0"
     inkscape:window-maximized="1" />
  <metadata
     id="metadata3007">
    <rdf:RDF>
      <cc:Work
         rdf:about="">
        <dc:format>image/svg+xml</dc:format>
        <dc:type
           rdf:resource="http://purl.org/dc/dcmitype/StillImage" />
        <dc:title></dc:title>
      </cc:Work>
    </rdf:RDF>
  </metadata>
  <g
     id="layer1"
     inkscape:label="Layer 1"
     inkscape:groupmode="layer">
    <path
       style="stroke:#000000;stroke-width:0.10593528"
       inkscape:connector-curvature="0"
       d="M 0.89499914,46.136048 V 19.864097 L 19.539612,1.2194854 H 45.811563 L 64.456175,19.864097 V 46.136048 L 45.811562,64.780659 H 19.539611 z"
       id="path4" />
    <path
       style="fill:#ff0000"
       inkscape:connector-curvature="0"
       d="M 2.6429303,45.341534 V 20.446742 L 20.22819,2.8614824 H 45.122985 L 62.708243,20.446742 V 45.341534 L 45.122985,62.926792 H 20.22819 z"
       id="path6" />
    <path
       inkscape:connector-curvature="0"
       d="m 18.204828,37.809534 c 0,0.858077 -0.158906,1.663182 -0.466117,2.415325 -0.307213,0.75214 -0.741548,1.398348 -1.281814,1.94921 -0.550865,0.540268 -1.175885,0.985198 -1.896246,1.303004 -0.720356,0.328398 -1.493685,0.497894 -2.330576,0.497894 -0.942824,0 -1.789245,-0.180078 -2.5382124,-0.540269 C 8.9429029,43.074517 8.3104694,42.587214 7.7966819,41.983383 7.2828982,41.368959 6.8866994,40.659194 6.6080882,39.864679 6.3294794,39.059572 6.1907057,38.222681 6.1907057,37.364604 h 3.0191552 c 0,0.44493 0.05931,0.879263 0.176914,1.313599 0.117575,0.434336 0.2997947,0.815704 0.5455657,1.165289 0.2468264,0.349586 0.5572194,0.625017 0.9322314,0.83689 0.375009,0.21187 0.825235,0.317804 1.365503,0.317804 0.402556,0 0.794517,-0.08475 1.175885,-0.254245 0.37077,-0.169493 0.688577,-0.402552 0.964008,-0.68858 0.264839,-0.296619 0.476712,-0.646205 0.635613,-1.027569 0.158906,-0.391963 0.243654,-0.805111 0.243654,-1.218258 0,-0.614426 -0.116513,-1.17588 -0.381369,-1.631402 -0.6568,-1.133508 -1.705559,-1.822086 -2.627194,-2.404731 C 11.76396,33.466189 10.976862,32.947104 9.8846696,32.205557 9.0064669,31.622914 8.3486069,30.923741 7.9089757,30.139822 7.4704044,29.345307 7.2500569,28.476634 7.2500569,27.533813 c 0,-0.762735 0.1398288,-1.472502 0.4173863,-2.139892 0.2786125,-0.667392 0.6695125,-1.250037 1.172705,-1.75853 0.5031897,-0.49789 1.0868964,-0.900447 1.7511088,-1.186474 0.664215,-0.275431 1.384574,-0.423738 2.147308,-0.423738 0.773327,0 1.483092,0.137719 2.139895,0.413144 0.656797,0.275435 1.218253,0.656803 1.705555,1.133509 0.47671,0.487302 0.868672,1.069947 1.154696,1.747932 0.286026,0.667393 0.44493,1.408939 0.466116,2.214049 h -2.955594 c -0.04236,-0.741547 -0.296621,-1.334786 -0.773326,-1.779716 -0.466116,-0.434333 -1.048761,-0.656794 -1.737342,-0.656794 -0.699173,0 -1.303004,0.233056 -1.793484,0.688579 -0.492598,0.466114 -0.739426,1.048757 -0.739426,1.747931 0,0.519081 0.139827,0.96401 0.418443,1.324194 0.277549,0.360176 0.811463,0.762731 1.605977,1.197066 2.076332,1.186475 3.591207,2.383544 4.544626,3.612394 0.953417,1.218254 1.430126,2.595415 1.430126,4.142067 z M 26.393625,25.224423 V 43.593602 H 23.279126 V 25.224423 H 19.35952 v -2.817877 h 10.95371 v 2.817877 z m 18.083153,7.743869 c 0,1.62081 -0.08476,3.00856 -0.264836,4.142069 -0.190682,1.133506 -0.497899,2.214048 -0.953417,3.220431 -0.540272,1.271227 -1.207664,2.192862 -2.00218,2.775509 -0.805108,0.572047 -1.822088,0.868665 -3.040342,0.868665 -1.281816,0 -2.330575,-0.296618 -3.135685,-0.868665 -0.805108,-0.582648 -1.4725,-1.504282 -2.002177,-2.775509 -0.455523,-1.027566 -0.762735,-2.10811 -0.953416,-3.231023 -0.180099,-1.133508 -0.26484,-2.510667 -0.26484,-4.131477 0,-1.59962 0.08475,-2.976781 0.26484,-4.131473 0.190682,-1.144102 0.497893,-2.224646 0.953416,-3.241623 0.550865,-1.260629 1.239445,-2.171673 2.033959,-2.73313 0.80511,-0.550863 1.843275,-0.836887 3.103903,-0.836887 1.239442,0 2.256422,0.286024 3.050938,0.836887 0.794514,0.561457 1.451312,1.493691 1.991584,2.796692 0.211868,0.529678 0.402555,1.059353 0.561455,1.589026 0.158906,0.519087 0.286026,1.080542 0.391963,1.652593 0.09531,0.582645 0.158907,1.207664 0.201275,1.875055 0.04236,0.6568 0.06358,1.387752 0.06358,2.19286 z m -2.955592,0 c 0,-0.593238 -0.01062,-1.133508 -0.04236,-1.610215 -0.03178,-0.487304 -0.07414,-0.932231 -0.127125,-1.34538 -0.05299,-0.413146 -0.127108,-0.805108 -0.211872,-1.186475 -0.08475,-0.381368 -0.180079,-0.76273 -0.286024,-1.133505 -0.286026,-0.95342 -0.635614,-1.641998 -1.048762,-2.06574 -0.413144,-0.413148 -0.94282,-0.625016 -1.589027,-0.625016 -1.324192,0 -2.235237,0.868667 -2.733131,2.616598 -0.254244,0.80511 -0.434336,1.610218 -0.529677,2.425919 -0.09531,0.805108 -0.137719,1.8009 -0.137719,2.987375 0,0.572054 0.01062,1.091135 0.04236,1.567839 0.03177,0.466117 0.07414,0.911046 0.127125,1.324194 0.05299,0.413147 0.127125,0.815702 0.21187,1.218255 0.08476,0.402556 0.180079,0.815703 0.286024,1.228848 0.497896,1.758528 1.40894,2.627195 2.733131,2.627195 0.646205,0 1.175884,-0.21187 1.58903,-0.635611 0.413149,-0.413146 0.762734,-1.080539 1.048759,-1.991584 0.12711,-0.413145 0.233058,-0.826293 0.317808,-1.207661 0.08475,-0.391959 0.158905,-0.805106 0.211871,-1.218256 0.05299,-0.423743 0.08475,-0.879263 0.105925,-1.34538 0.02119,-0.476704 0.03177,-1.016975 0.03177,-1.6314 z m 17.638225,-4.618778 c 0,1.938618 -0.487301,3.42171 -1.461906,4.428095 -0.974607,1.01698 -2.372954,1.514875 -4.195042,1.514875 h -3.336961 v 9.301118 H 47.082786 V 22.406546 h 6.419677 c 0.83689,0 1.599625,0.137718 2.298798,0.423741 0.699175,0.286022 1.29241,0.688577 1.800897,1.207661 0.497898,0.508489 0.88986,1.1441 1.154699,1.875055 0.264838,0.741545 0.402553,1.557246 0.402553,2.436511 z m -3.019158,0 c 0,-0.879265 -0.254243,-1.599622 -0.773327,-2.150487 -0.508488,-0.550863 -1.186476,-0.815701 -2.023364,-0.815701 h -3.178061 v 6.006528 h 3.178061 c 0.900449,0 1.589031,-0.264837 2.076333,-0.794513 0.476708,-0.529677 0.720358,-1.271222 0.720358,-2.245827 z"
       id="path8" />
  </g>
</svg>
